<svg width="415" height="76" fill="none" xmlns="http://www.w3.org/2000/svg">
  <path d="M80.23 48.84c.3 12.64-26.42 20.24-42 27.08 0 0 31.46-7.07 42.6-16.93 7.08-6.24 6.33-22.57-12.04-20.01-.15 0-.6.67-.75.67 0 0 12.04.9 12.2 9.19Z" fill="#224CFF"/>
  <path d="M19.57 25.2c-1.35-.37-2.93-.82-4.67-1.2l-.52-2.18s34.77 16.7 72.1-20.47L87.83 0s-.45 2.1-.37 2.03c0 0-1.58 1.13-3.54 3.76-3.09 4.22-6.1 12.27-1.05 27.54l-1.66 1.13s-1.2-10.38-6.55-7.22c-2.93 1.73-4.51 11.81-4.51 11.81l-2.41.68s8.13-22.95-5.42-19.26c-12.12 3.3-17.84 13.32-21.75 54.7 0 .3-2.33.75-2.33.75s3.46-22.57-6.78-22.04c-8.35.37-22.95 21.44-22.95 21.44H5.2c.07 0 39.5-43.26 14.37-50.11Z" fill="#224CFF"/>
  <path d="M39.74 23.18c3.09 0 6.32-2.86 7.23-6.4.9-3.54-.76-6.4-3.84-6.4-3.09 0-6.32 2.86-7.23 6.4-.98 3.54.76 6.4 3.84 6.4ZM80.23 48.84c.3 12.64-26.42 20.24-42 27.08 0 0 31.46-7.07 42.6-16.93 7.08-6.24 6.33-22.57-12.04-20.01-.15 0-.6.67-.75.67 0 0 12.04.9 12.2 9.19Z" fill="#224CFF"/>
  <path d="M19.57 25.2c-1.35-.37-2.93-.82-4.67-1.2l-.52-2.18s34.77 16.7 72.1-20.47C87.23.6 87.76 0 87.76 0s-.45 2.1-.38 2.03c0 0-1.58 1.13-3.53 3.76-3.1 4.22-6.1 12.27-1.06 27.54l-1.65 1.13s-1.2-10.38-6.55-7.22c-2.94 1.73-4.52 11.81-4.52 11.81l-2.33.68s8.13-22.95-5.42-19.26c-12.04 3.38-17.76 13.32-21.75 54.78 0 .3-2.33.75-2.33.75s3.46-22.57-6.78-22.05C23.11 54.33 8.51 75.4 8.51 75.4H5.2c.07-.08 39.5-43.34 14.37-50.2Z" fill="#224CFF"/>
  <path d="M39.74 23.18c3.09 0 6.32-2.86 7.23-6.4.9-3.54-.76-6.4-3.84-6.4-3.09 0-6.32 2.86-7.23 6.4-.98 3.54.76 6.4 3.84 6.4ZM71.5 11.14a5.83 5.83 0 0 0 3.54-6.02c-.38-2.49-2.63-3.69-4.97-2.86a5.83 5.83 0 0 0-3.53 6.02c.37 2.48 2.55 3.76 4.96 2.86ZM3.76 73.67c0 1.05-.82 1.88-1.88 1.88A1.86 1.86 0 0 1 0 73.67c0-1.06.83-1.88 1.88-1.88 1.06 0 1.88.82 1.88 1.88Zm-3.53 0c0 .98.75 1.73 1.65 1.73.98 0 1.66-.75 1.66-1.73s-.68-1.73-1.66-1.73c-.98 0-1.65.75-1.65 1.73Zm1.12-.08h.46c.3 0 .67 0 .67-.45 0-.38-.3-.45-.52-.45h-.6v.9Zm-.15-1.05h.83c.53 0 .76.22.76.6s-.23.53-.6.6l.67.98h-.23l-.67-.98h-.6v.98H1.2v-2.18ZM105.52 41.54c.3.07.6.07 1.06.07 1.28 0 2.4-.52 2.4-1.8S107.86 38 106.44 38h-.98v3.54h.07Zm0-5.65h.9c1.51 0 2.26-.6 2.26-1.58 0-.98-.75-1.43-2.03-1.43-.6 0-.98 0-1.2.08v2.93h.07Zm-2.78-4.74c.75-.15 2.18-.3 3.61-.3 1.73 0 2.79.15 3.69.68.9.45 1.5 1.35 1.5 2.48s-.67 2.1-2.03 2.64c1.43.37 2.49 1.5 2.49 3.08 0 1.13-.53 2.03-1.28 2.63-.9.76-2.41 1.13-4.9 1.13-1.35 0-2.4-.07-3.08-.15V31.15ZM114.47 34.39h2.79v9.1h-2.79v-9.1Zm1.44-1.2c-.98 0-1.59-.68-1.59-1.51s.6-1.5 1.59-1.5c.97 0 1.58.67 1.58 1.5s-.6 1.5-1.58 1.5ZM125.99 38.08c0-.15 0-.38-.08-.53-.22-.75-.75-1.28-1.5-1.28-1.05 0-1.88.9-1.88 2.56 0 1.35.67 2.4 1.8 2.4.76 0 1.28-.45 1.5-1.12.08-.23.08-.53.08-.75v-1.28h.08Zm2.78 4.13c0 1.74-.37 3.16-1.35 4.14a5.66 5.66 0 0 1-3.69 1.13 7.1 7.1 0 0 1-3.23-.68l.52-2.18c.6.3 1.58.68 2.64.68 1.35 0 2.33-.68 2.33-2.4v-.61a2.93 2.93 0 0 1-2.4 1.2c-2.27 0-3.85-1.8-3.85-4.44 0-2.93 1.88-4.81 4.14-4.81 1.2 0 2.03.52 2.48 1.28l.08-1.06h2.4c-.07.6-.07 1.36-.07 2.71v5.04ZM139.16 41.54c.3.07.6.07 1.06.07 1.28 0 2.4-.52 2.4-1.8S141.5 38 140.08 38h-.9v3.54Zm0-5.65h.9c1.51 0 2.26-.6 2.26-1.58 0-.98-.75-1.43-2.03-1.43-.6 0-.98 0-1.2.08v2.93h.07Zm-2.78-4.74c.75-.15 2.18-.3 3.61-.3 1.73 0 2.79.15 3.69.68.9.45 1.5 1.35 1.5 2.48s-.67 2.1-2.03 2.64c1.43.37 2.49 1.5 2.49 3.08 0 1.13-.53 2.03-1.28 2.63-.9.76-2.41 1.13-4.9 1.13-1.35 0-2.4-.07-3.08-.15V31.15ZM148.12 37.4c0-1.36 0-2.26-.08-3.01h2.41l.08 1.73h.07a2.6 2.6 0 0 1 2.41-1.88c.23 0 .38 0 .6.07v2.64c-.22 0-.45-.08-.75-.08-1.05 0-1.73.53-1.96 1.43-.07.15-.07.38-.07.6v4.6h-2.79l.08-6.1ZM160 41.69c1.14 0 1.81-1.13 1.81-2.71 0-1.36-.52-2.71-1.8-2.71-1.36 0-1.88 1.35-1.88 2.7 0 1.51.67 2.72 1.88 2.72Zm-.07 2.03c-2.63 0-4.66-1.73-4.66-4.74 0-2.94 1.95-4.82 4.81-4.82 2.79 0 4.6 1.96 4.6 4.67.07 3.38-2.34 4.89-4.75 4.89ZM170.25 31.9v2.49h2.03v2.1h-2.03v3.32c0 1.12.3 1.58 1.13 1.58.38 0 .6 0 .83-.08v2.18c-.38.15-1.06.23-1.8.23-.91 0-1.66-.3-2.12-.75-.52-.53-.75-1.43-.75-2.71v-3.77h-1.2v-2.1h1.2v-1.73l2.71-.76ZM174.76 30.25h2.78v5.2c.3-.38.68-.76 1.13-.99.45-.22.98-.37 1.43-.37 1.8 0 3.16 1.28 3.16 3.99v5.41h-2.78v-5.04c0-1.2-.38-2.03-1.43-2.03-.76 0-1.2.45-1.43.98-.08.15-.08.37-.08.6v5.5h-2.78V30.24ZM191.7 37.92c0-.67-.3-1.88-1.58-1.88-1.2 0-1.66 1.13-1.73 1.88h3.31Zm-3.31 1.89c.07 1.2 1.2 1.73 2.56 1.73.98 0 1.73-.15 2.48-.38l.38 1.96c-.9.37-2.03.6-3.24.6-3.08 0-4.82-1.8-4.82-4.67 0-2.33 1.43-4.89 4.6-4.89 2.93 0 4.06 2.33 4.06 4.6 0 .44-.08.9-.08 1.12l-5.94-.07ZM196.74 37.4c0-1.36 0-2.26-.08-3.01h2.41l.08 1.73h.07a2.6 2.6 0 0 1 2.41-1.88c.23 0 .38 0 .6.07v2.64c-.22 0-.45-.08-.75-.08-1.05 0-1.73.53-1.95 1.43 0 .15-.08.38-.08.6v4.6h-2.79l.08-6.1ZM204.49 41.09c.52.3 1.58.67 2.4.67.83 0 1.21-.3 1.21-.75s-.3-.68-1.28-1.05c-1.88-.6-2.63-1.66-2.56-2.71 0-1.73 1.43-3.01 3.69-3.01a5.9 5.9 0 0 1 2.56.52l-.45 1.96a4.34 4.34 0 0 0-1.96-.53c-.68 0-1.05.3-1.05.76 0 .45.37.67 1.43 1.05 1.73.6 2.4 1.5 2.4 2.78 0 1.74-1.27 2.94-3.9 2.94-1.21 0-2.27-.3-2.94-.68l.45-1.95ZM220.6 41.54c.3.07.6.07 1.05.07 1.28 0 2.4-.52 2.4-1.8S222.94 38 221.5 38h-.98v3.54h.08Zm0-5.65h.9c1.5 0 2.26-.6 2.26-1.58 0-.98-.75-1.43-2.03-1.43-.6 0-.98 0-1.2.08v2.93h.07Zm-2.79-4.74c.75-.15 2.19-.3 3.62-.3 1.73 0 2.78.15 3.68.68.9.45 1.5 1.35 1.5 2.48s-.67 2.1-2.02 2.64c1.43.37 2.48 1.5 2.48 3.08 0 1.13-.53 2.03-1.28 2.63-.9.76-2.4 1.13-4.9 1.13-1.35 0-2.4-.07-3.08-.15V31.15ZM229.55 34.39h2.79v9.1h-2.79v-9.1Zm1.43-1.2c-.97 0-1.58-.68-1.58-1.51s.6-1.5 1.58-1.5c.98 0 1.58.67 1.58 1.5s-.6 1.5-1.58 1.5ZM241.07 38.08c0-.15 0-.38-.08-.53-.22-.75-.75-1.28-1.5-1.28-1.06 0-1.89.9-1.89 2.56 0 1.35.68 2.4 1.81 2.4.75 0 1.28-.45 1.5-1.12.08-.23.08-.53.08-.75v-1.28h.08Zm2.78 4.13c0 1.74-.37 3.16-1.35 4.14a5.66 5.66 0 0 1-3.7 1.13 7.1 7.1 0 0 1-3.23-.68l.53-2.18c.6.3 1.58.68 2.63.68 1.36 0 2.34-.68 2.34-2.4v-.61a2.93 2.93 0 0 1-2.41 1.2c-2.26 0-3.84-1.8-3.84-4.44 0-2.93 1.88-4.81 4.14-4.81 1.2 0 2.03.52 2.48 1.28l.08-1.06h2.4c-.07.6-.07 1.36-.07 2.71v5.04ZM251.53 40.63c.75.38 1.96.76 3.16.76 1.28 0 1.96-.53 1.96-1.36 0-.75-.6-1.2-2.1-1.73-2.12-.75-3.47-1.88-3.47-3.76 0-2.18 1.8-3.76 4.74-3.76 1.43 0 2.4.3 3.16.6l-.6 2.26a5.73 5.73 0 0 0-2.56-.6c-1.2 0-1.8.6-1.8 1.2 0 .83.67 1.13 2.33 1.8 2.18.83 3.23 1.96 3.23 3.77 0 2.1-1.58 3.9-5.04 3.9a8.26 8.26 0 0 1-3.54-.74l.53-2.34ZM261.91 34.39h2.79v9.1h-2.79v-9.1Zm1.36-1.2c-.98 0-1.58-.68-1.58-1.51s.6-1.5 1.58-1.5c.98 0 1.58.67 1.58 1.5.07.83-.53 1.5-1.58 1.5ZM267.64 41.09c.53.3 1.58.67 2.4.67.84 0 1.21-.3 1.21-.75s-.3-.68-1.28-1.05c-1.88-.6-2.63-1.66-2.56-2.71 0-1.73 1.43-3.01 3.7-3.01a5.9 5.9 0 0 1 2.55.52l-.45 1.96a4.35 4.35 0 0 0-1.96-.53c-.68 0-1.05.3-1.05.76 0 .45.38.67 1.43 1.05 1.73.6 2.4 1.5 2.4 2.78 0 1.74-1.27 2.94-3.9 2.94-1.21 0-2.26-.3-2.94-.68l.45-1.95ZM279.45 31.9v2.49h2.04v2.1h-2.04v3.32c0 1.12.3 1.58 1.13 1.58.38 0 .6 0 .83-.08v2.18c-.38.15-1.05.23-1.8.23-.9 0-1.66-.3-2.11-.75-.53-.53-.76-1.43-.76-2.71v-3.77h-1.2v-2.1h1.2v-1.73l2.71-.76ZM289.24 37.92c0-.67-.3-1.88-1.59-1.88-1.2 0-1.65 1.13-1.73 1.88h3.31Zm-3.32 1.89c.08 1.2 1.2 1.73 2.56 1.73a8.2 8.2 0 0 0 2.49-.38l.37 1.96c-.9.37-2.03.6-3.23.6-3.09 0-4.82-1.8-4.82-4.67 0-2.33 1.43-4.89 4.59-4.89 2.94 0 4.06 2.33 4.06 4.6 0 .44-.07.9-.07 1.12l-5.95-.07ZM294.28 37.4c0-1.36 0-2.26-.08-3.01h2.41l.08 1.73h.07a2.6 2.6 0 0 1 2.41-1.88c.23 0 .38 0 .6.07v2.64c-.22 0-.45-.08-.75-.08-1.05 0-1.73.53-1.96 1.43 0 .15-.07.38-.07.6v4.6h-2.79l.08-6.1ZM301.96 41.09c.52.3 1.58.67 2.4.67.83 0 1.2-.3 1.2-.75s-.3-.68-1.27-1.05c-1.88-.6-2.64-1.66-2.56-2.71 0-1.73 1.43-3.01 3.69-3.01a5.9 5.9 0 0 1 2.56.52l-.45 1.96a4.34 4.34 0 0 0-1.96-.53c-.68 0-1.06.3-1.06.76 0 .45.38.67 1.44 1.05 1.73.6 2.4 1.5 2.4 2.78 0 1.74-1.28 2.94-3.91 2.94-1.2 0-2.26-.3-2.94-.68l.46-1.95ZM319.42 41.69c1.13 0 1.8-1.13 1.8-2.71 0-1.36-.52-2.71-1.8-2.71-1.36 0-1.88 1.35-1.88 2.7.07 1.51.75 2.72 1.88 2.72Zm0 2.03c-2.64 0-4.67-1.73-4.67-4.74 0-2.94 1.96-4.82 4.82-4.82 2.78 0 4.59 1.96 4.59 4.67 0 3.38-2.34 4.89-4.74 4.89ZM326.94 43.5v-7.08h-1.2v-2.1h1.2v-.38c0-1.13.3-2.34 1.13-3.09.75-.68 1.66-.9 2.49-.9.6 0 1.05.07 1.5.15l-.07 2.18a2.81 2.81 0 0 0-.9-.15c-.91 0-1.29.75-1.29 1.66v.45h1.81v2.1h-1.8v7.15h-2.87ZM341.01 36.5h1.13c1.43 0 2.26-.68 2.26-1.81s-.75-1.73-2.1-1.73c-.68 0-1.06.07-1.29.07v3.47Zm-2.78-5.35c.9-.15 2.26-.3 3.76-.3 1.88 0 3.16.3 4.07.98a3.2 3.2 0 0 1 1.13 2.63c0 1.58-1.13 2.71-2.19 3.09v.07c.9.38 1.36 1.2 1.66 2.34.38 1.43.75 3.08.98 3.53h-2.86a15.7 15.7 0 0 1-.83-2.93c-.38-1.58-.9-2.03-2.03-2.03h-.83v4.96h-2.78V31.15h-.08ZM358.26 40.56c0 1.2 0 2.18.07 2.93h-2.4l-.16-1.28h-.07c-.38.53-1.2 1.5-2.86 1.5-1.88 0-3.16-1.12-3.16-3.98v-5.34h2.78v4.89c0 1.35.45 2.1 1.43 2.1.75 0 1.2-.52 1.43-.97.08-.15.08-.38.08-.6v-5.42h2.78v6.17h.08ZM361.19 41.09c.53.3 1.58.67 2.4.67.84 0 1.21-.3 1.21-.75s-.3-.68-1.28-1.05c-1.88-.6-2.63-1.66-2.56-2.71 0-1.73 1.43-3.01 3.7-3.01a5.9 5.9 0 0 1 2.55.52l-.45 1.96a4.34 4.34 0 0 0-1.96-.53c-.67 0-1.05.3-1.05.76 0 .45.38.67 1.43 1.05 1.73.6 2.4 1.5 2.4 2.78 0 1.74-1.27 2.94-3.9 2.94-1.21 0-2.26-.3-2.94-.68l.45-1.95ZM369.76 41.09c.53.3 1.59.67 2.41.67.83 0 1.2-.3 1.2-.75s-.3-.68-1.27-1.05c-1.88-.6-2.64-1.66-2.56-2.71 0-1.73 1.43-3.01 3.69-3.01a5.9 5.9 0 0 1 2.56.52l-.46 1.96a4.35 4.35 0 0 0-1.95-.53c-.68 0-1.06.3-1.06.76 0 .45.38.67 1.43 1.05 1.74.6 2.41 1.5 2.41 2.78 0 1.74-1.28 2.94-3.91 2.94-1.2 0-2.26-.3-2.94-.68l.45-1.95ZM378.5 34.39h2.78v9.1h-2.78v-9.1Zm1.43-1.2c-.98 0-1.58-.68-1.58-1.51s.6-1.5 1.58-1.5c.98 0 1.58.67 1.58 1.5s-.6 1.5-1.58 1.5ZM389.03 39.2c-1.5 0-2.63.38-2.63 1.43 0 .76.45 1.06 1.13 1.06.68 0 1.28-.45 1.43-1.06.07-.15.07-.3.07-.45v-.98Zm2.71 2.11c0 .83 0 1.73.15 2.18h-2.56l-.15-.9h-.07c-.6.75-1.5 1.13-2.56 1.13a2.81 2.81 0 0 1-2.94-2.78c0-2.34 2.11-3.47 5.35-3.47v-.07c0-.45-.23-1.2-1.66-1.2-.9 0-1.88.3-2.48.67l-.53-1.8a7.1 7.1 0 0 1 3.54-.83c3.01 0 3.99 1.8 3.99 3.91v3.16h-.08ZM111.16 64.64c-.6.3-1.73.6-3.16.6-2.86 0-5.57-1.8-5.57-6.1 0-3.53 2.26-6.24 6.02-6.24 1.51 0 2.41.3 2.71.53l-.3.67c-.6-.3-1.43-.52-2.48-.52-3.16 0-5.12 2.1-5.12 5.57 0 3.23 1.8 5.34 5.04 5.34.98 0 1.96-.23 2.64-.53l.22.68ZM117.79 56.51v.75h-2.71v7.75h-.83v-7.75h-2.78v-.75h6.32ZM124.34 60.5c-1.89-.08-4.3.22-4.3 2.26 0 1.2.83 1.8 1.66 1.8 1.43 0 2.19-.9 2.49-1.73.07-.15.07-.38.07-.53v-1.8h.08Zm.9 2.48c0 .68 0 1.36.15 2.03h-.75l-.15-1.2a3.22 3.22 0 0 1-2.71 1.43c-1.73 0-2.49-1.2-2.49-2.33 0-1.96 1.73-3.16 5.12-3.09v-.23c0-.82-.15-2.48-2.18-2.48-.75 0-1.5.23-2.1.6l-.23-.6a4.54 4.54 0 0 1 2.48-.75c2.4 0 2.94 1.8 2.94 3.39v3.23h-.08ZM129.08 61.7c0 .23 0 .45.08.68a2.96 2.96 0 0 0 2.78 2.18c1.96 0 3.02-1.58 3.02-3.83 0-1.89-1.06-3.62-2.94-3.62-1.2 0-2.41.83-2.79 2.26-.07.23-.15.53-.15.75v1.58Zm-.83-2.48c0-1.05 0-1.88-.07-2.7h.83l.07 1.57a3.36 3.36 0 0 1 3.16-1.8c2.19 0 3.62 1.8 3.62 4.28 0 3.01-1.8 4.6-3.84 4.6-1.2 0-2.26-.53-2.86-1.59v4.9h-.83v-9.26h-.08ZM139.23 56.51v7.83h3.47V56.5h.9v7.83h3.39V56.5h.9v8.5h-9.48v-8.5h.82ZM151.8 56.51v4.21c0 1.36 0 2.11-.07 3.4.6-1.06.9-1.66 1.58-2.72l3.23-4.89h.9v8.5h-.82V60.8c0-1.43 0-2.26.07-3.39a40.42 40.42 0 0 1-1.73 2.86c-.97 1.43-2.1 3.09-3.16 4.74h-.9v-8.5h.9ZM166.25 60.05c0-1.2-.45-3.01-2.48-3.01-1.88 0-2.64 1.65-2.79 3h5.27Zm-5.34.67c0 2.71 1.5 3.77 3.24 3.77a5 5 0 0 0 2.33-.45l.23.67c-.3.15-1.2.53-2.64.53-2.4 0-3.91-1.8-3.91-4.29 0-2.86 1.58-4.59 3.76-4.59 2.79 0 3.31 2.63 3.31 3.84v.52h-6.32ZM175.35 64.34c.38.07.83.07 1.44.07 1.13 0 2.25-.37 2.93-1.13.45-.52.68-1.13.68-2.03 0-1.13-.45-1.88-1.2-2.33a4.62 4.62 0 0 0-2.56-.6c-.38 0-.98 0-1.36.07v5.95h.07Zm5.12-11.29v.68h-5.04v3.99c.38-.08 1.13-.08 1.5-.08 1.06 0 2.11.23 2.87.68.97.52 1.58 1.5 1.58 2.93 0 1.13-.38 1.88-.9 2.48-.9.9-2.34 1.28-3.84 1.28-.9 0-1.59-.07-2.11-.07V53.05h5.94ZM184.61 61.7c0 .23 0 .45.08.68a2.96 2.96 0 0 0 2.78 2.18c1.96 0 3.02-1.58 3.02-3.84 0-1.88-1.06-3.6-2.94-3.6-1.2 0-2.4.82-2.79 2.25-.07.23-.15.53-.15.75v1.58Zm-.82-2.48c0-1.05 0-1.88-.08-2.7h.83l.07 1.57a3.36 3.36 0 0 1 3.17-1.8c2.18 0 3.6 1.8 3.6 4.28 0 3.01-1.8 4.6-3.83 4.6-1.2 0-2.26-.53-2.86-1.59v4.9h-.83v-9.26h-.07ZM198.47 60.5c-1.81-.08-4.3.22-4.3 2.26 0 1.2.83 1.8 1.66 1.8 1.43 0 2.18-.9 2.49-1.73.07-.15.07-.37.07-.53v-1.8h.08Zm.82 2.48c0 .68 0 1.36.16 2.03h-.76l-.15-1.2a3.22 3.22 0 0 1-2.7 1.43c-1.74 0-2.5-1.2-2.5-2.33 0-1.96 1.74-3.16 5.13-3.09v-.22c0-.83-.15-2.49-2.19-2.49-.75 0-1.5.23-2.1.6l-.3-.6a4.54 4.54 0 0 1 2.48-.75c2.4 0 2.93 1.8 2.93 3.39v3.23ZM207.35 56.51v.75h-2.7v7.75h-.84v-7.75h-2.78v-.75h6.32ZM210.28 64.41c.38 0 .76.08 1.28.08 1.36 0 3.1-.45 3.1-2.1 0-1.74-1.81-2.12-3.17-2.12-.45 0-.83 0-1.28.08v4.06h.07Zm0-7.9v3.09c.38-.08.98-.08 1.44-.08 1.88 0 3.83.6 3.83 2.86 0 .75-.3 1.28-.67 1.73-.83.83-2.26.98-3.47.98-.75 0-1.43-.08-1.95-.08v-8.5h.82ZM222.55 57.19c-.45-.08-.9-.08-1.5-.08-1.13 0-2.71.3-2.71 1.73 0 1.28 1.65 1.74 2.63 1.74h1.58v-3.4Zm.83 7.82h-.83v-3.83h-1.5c-.68 0-1.13.15-1.5.37-.76.53-.99 1.8-1.36 2.71-.16.3-.23.53-.38.68h-.9c.15-.3.37-.6.52-.98.45-.9.53-2.03 1.43-2.7.23-.16.53-.3.9-.38-1.2-.15-2.25-.83-2.25-2.11 0-.75.38-1.36.9-1.73.68-.45 1.58-.6 2.64-.6.82 0 1.65.07 2.4.15V65h-.07ZM239.5 64.64c-.61.3-1.74.6-3.17.6-2.86 0-5.57-1.8-5.57-6.1 0-3.53 2.26-6.24 6.02-6.24 1.5 0 2.41.3 2.71.53l-.3.67c-.6-.3-1.43-.52-2.48-.52-3.16 0-5.12 2.1-5.12 5.57 0 3.23 1.8 5.34 5.04 5.34.98 0 1.96-.23 2.64-.53l.22.68ZM246.03 56.51v.75h-2.7v7.75h-.83v-7.75h-2.79v-.75h6.32ZM252.66 60.5c-1.88-.08-4.3.22-4.3 2.26 0 1.2.83 1.8 1.66 1.8 1.43 0 2.19-.9 2.49-1.73.07-.15.07-.38.07-.53v-1.8h.08Zm.83 2.48c0 .68 0 1.36.15 2.03h-.76l-.15-1.2a3.22 3.22 0 0 1-2.7 1.43c-1.74 0-2.5-1.2-2.5-2.33 0-1.96 1.74-3.16 5.13-3.09v-.22c0-.83-.15-2.49-2.19-2.49-.75 0-1.5.23-2.1.6l-.3-.6a4.54 4.54 0 0 1 2.48-.75c2.4 0 2.94 1.8 2.94 3.39v3.23ZM257.4 61.7c0 .23 0 .45.08.68a2.96 2.96 0 0 0 2.78 2.18c1.96 0 3.02-1.58 3.02-3.84 0-1.88-1.06-3.6-2.94-3.6-1.2 0-2.4.82-2.78 2.25-.08.23-.16.53-.16.75v1.58Zm-.9-2.48c0-1.05 0-1.88-.07-2.71h.82l.08 1.58a3.36 3.36 0 0 1 3.16-1.8c2.18 0 3.61 1.8 3.61 4.28 0 3.01-1.8 4.6-3.84 4.6-1.2 0-2.25-.53-2.86-1.59v4.9h-.82v-9.26h-.08ZM267.56 56.51v7.83h3.46V56.5h.83v7.83h3.46V56.5h.83v8.5h-9.48v-8.5h.9ZM280.06 56.51v4.22c0 1.35 0 2.1-.08 3.38.6-1.05.9-1.65 1.58-2.7l3.24-4.9h.9v8.5h-.83v-4.2c0-1.44 0-2.27.08-3.4a40.44 40.44 0 0 1-1.73 2.86 174.3 174.3 0 0 0-3.16 4.74h-.9v-8.5h.9ZM294.5 60.05c0-1.2-.44-3.01-2.48-3.01-1.88 0-2.63 1.65-2.78 3h5.27Zm-5.34.68c0 2.7 1.5 3.76 3.24 3.76 1.2 0 1.88-.23 2.33-.45l.23.67c-.3.15-1.2.53-2.63.53-2.41 0-3.92-1.8-3.92-4.29 0-2.86 1.58-4.59 3.76-4.59 2.79 0 3.32 2.63 3.32 3.84v.53h-6.33ZM310.84 64.64c-.6.3-1.73.6-3.16.6-2.87 0-5.57-1.8-5.57-6.1 0-3.53 2.25-6.24 6.02-6.24 1.5 0 2.4.3 2.7.53l-.3.67c-.6-.3-1.42-.52-2.48-.52-3.16 0-5.12 2.1-5.12 5.57 0 3.23 1.81 5.34 5.05 5.34.97 0 1.95-.23 2.63-.53l.23.68ZM318.52 60.05c0-1.2-.45-3.01-2.49-3.01-1.88 0-2.63 1.65-2.78 3h5.27Zm-5.42.68c0 2.7 1.5 3.76 3.23 3.76a5 5 0 0 0 2.34-.45l.22.67c-.3.15-1.2.53-2.63.53-2.41 0-3.92-1.8-3.92-4.29 0-2.86 1.59-4.59 3.77-4.59 2.78 0 3.31 2.63 3.31 3.84v.53h-6.32ZM327.92 64.64c-.38.15-1.28.52-2.48.52-2.41 0-4.07-1.8-4.07-4.36 0-2.7 1.8-4.51 4.37-4.51 1.05 0 1.88.3 2.18.52l-.3.68a3.82 3.82 0 0 0-1.96-.53c-2.26 0-3.39 1.73-3.39 3.77 0 2.25 1.36 3.68 3.32 3.68.98 0 1.65-.3 2.1-.52l.23.75ZM335.98 56.51v.75h-2.79v7.75h-.83v-7.75h-2.7v-.75h6.32ZM338.9 61.7c0 .23 0 .45.08.68a2.96 2.96 0 0 0 2.79 2.18c1.96 0 3-1.58 3-3.84 0-1.88-1.04-3.6-2.93-3.6-1.2 0-2.4.82-2.78 2.25-.08.23-.15.53-.15.75v1.58Zm-.82-2.48c0-1.05 0-1.88-.08-2.7h.83l.08 1.57a3.36 3.36 0 0 1 3.16-1.8c2.18 0 3.61 1.8 3.61 4.28 0 3.01-1.8 4.6-3.84 4.6-1.2 0-2.25-.53-2.86-1.59v4.9h-.83v-9.26h-.07ZM356 65.01h-.83v-8.5h.83v8.5Zm-6.93-.67c.38.07.75.07 1.2.07 1.36 0 2.87-.6 2.87-2.1 0-1.66-1.43-2.11-2.79-2.11-.45 0-.9 0-1.28.07v4.07Zm0-7.83v3.09c.3-.08.83-.08 1.36-.08 1.8 0 3.53.75 3.53 2.78 0 .76-.3 1.36-.67 1.81-.83.83-2.11.98-3.17.98-.75 0-1.43-.08-1.95-.08v-8.5h.9ZM364.87 59.14c.38.15.9.15 1.5.15 2.11 0 3.4-1.05 3.4-2.93 0-1.88-1.36-2.7-3.24-2.7-.76 0-1.36.07-1.66.14v5.34Zm-.83-5.94c.68-.15 1.58-.23 2.56-.23 1.43 0 2.49.38 3.16.98.6.53.9 1.36.9 2.33 0 1.06-.3 1.81-.82 2.41-.75.9-2.03 1.36-3.46 1.36-.53 0-1.06 0-1.43-.15V65h-.83V53.2h-.08ZM376.16 64.49c1.73 0 3.16-1.58 3.16-3.77 0-1.58-.83-3.68-3.08-3.68-2.19 0-3.17 1.95-3.17 3.76 0 2.1 1.36 3.69 3.09 3.69Zm-.08.75c-2.18 0-3.83-1.73-3.83-4.37 0-2.93 1.88-4.51 3.99-4.51 2.33 0 3.91 1.8 3.91 4.36 0 3.16-2.18 4.52-4.06 4.52ZM388.66 64.64c-.38.15-1.28.52-2.49.52-2.4 0-4.06-1.8-4.06-4.36 0-2.71 1.8-4.52 4.37-4.52 1.05 0 1.88.3 2.18.53l-.3.68a3.82 3.82 0 0 0-1.96-.53c-2.26 0-3.39 1.73-3.39 3.76 0 2.26 1.36 3.7 3.31 3.7.98 0 1.66-.31 2.11-.54l.23.76ZM396.56 64.64c-.38.15-1.28.52-2.48.52-2.41 0-4.07-1.8-4.07-4.36 0-2.71 1.8-4.52 4.37-4.52 1.05 0 1.88.3 2.18.53l-.3.68a3.82 3.82 0 0 0-1.96-.53c-2.26 0-3.38 1.73-3.38 3.76 0 2.26 1.35 3.7 3.3 3.7.99 0 1.66-.31 2.11-.54l.23.76ZM399.72 56.51v4.21c0 1.36 0 2.11-.07 3.4.6-1.06.9-1.66 1.58-2.72l3.24-4.89h.9v8.5h-.83V60.8c0-1.43 0-2.26.08-3.39a40.42 40.42 0 0 1-1.74 2.86c-.97 1.43-2.1 3.09-3.16 4.74h-.9v-8.5h.9ZM409.35 56.51v4.21c0 1.36 0 2.11-.07 3.4.6-1.06.9-1.66 1.58-2.72l3.24-4.89h.9v8.5h-.83V60.8c0-1.43 0-2.26.08-3.39a40.8 40.8 0 0 1-1.74 2.86c-.97 1.43-2.1 3.09-3.16 4.74h-.9v-8.5h.9Z" fill="#224CFF"/>
</svg>
